<svg xmlns="http://www.w3.org/2000/svg" version="1.1" xmlns:xlink="http://www.w3.org/1999/xlink" xmlns:svgjs="http://svgjs.dev/svgjs" width="1440" height="560" preserveAspectRatio="none" viewBox="0 0 1440 560"><g mask="url(&quot;#SvgjsMask1033&quot;)" fill="none"><rect width="1440" height="560" x="0" y="0" fill="rgba(191, 243, 213, 1)"></rect><path d="M0,420.452C98.702,428.425,207.499,505.983,289.502,450.474C371.951,394.664,332.948,261.429,370.903,169.386C406.803,82.326,510.089,21.407,505.214,-72.639C500.327,-166.919,413.729,-233.957,346.556,-300.293C283.783,-362.283,211.945,-410.146,130.098,-443.075C41.079,-478.89,-54.428,-525.949,-146.41,-498.626C-238.341,-471.318,-289.156,-377.231,-347.582,-301.182C-402.741,-229.385,-474.948,-159.077,-476.821,-68.557C-478.656,20.135,-393.923,82.374,-357.188,163.122C-320.38,244.032,-333.049,354.051,-260.927,406.01C-188.789,457.981,-88.62,413.293,0,420.452" fill="#76e5a5"></path><path d="M1440 1033.959C1531.764 1031.406 1619.7350000000001 1008.7280000000001 1701.262 966.531 1789.205 921.014 1881.097 870.1800000000001 1926.481 782.168 1972.654 692.625 1976.187 583.771 1948.598 486.875 1922.6680000000001 395.807 1833.796 343.401 1779.468 265.849 1716.923 176.56799999999998 1703.685 43.923 1605.344-3.1100000000000136 1506.244-50.50599999999997 1380.377-23.908000000000015 1284.058 28.910999999999945 1194.505 78.01999999999998 1161.7649999999999 185.041 1106.093 270.668 1058.661 343.621 998.066 408.647 981.6120000000001 494.094 964.701 581.9110000000001 980.673 671.635 1012.808 755.092 1046.434 842.4200000000001 1090.864 930.182 1169.224 981.335 1247.81 1032.635 1346.188 1036.569 1440 1033.959" fill="#ffffff"></path></g><defs><mask id="SvgjsMask1033"><rect width="1440" height="560" fill="#ffffff"></rect></mask></defs></svg>