<svg xmlns="http://www.w3.org/2000/svg" version="1.1" xmlns:xlink="http://www.w3.org/1999/xlink" xmlns:svgjs="http://svgjs.dev/svgjs" width="1440" height="560" preserveAspectRatio="none" viewBox="0 0 1440 560"><g mask="url(&quot;#SvgjsMask1001&quot;)" fill="none"><rect width="1440" height="560" x="0" y="0" fill="rgba(24, 106, 59, 1)"></rect><path d="M0,542.803C106.187,553.368,216.246,533.848,306.728,477.277C397.771,420.356,475.803,333.324,501.713,229.125C526.241,130.486,459.798,36.492,441.182,-63.432C423.561,-158.018,463.67,-274.845,395.227,-342.466C326.229,-410.636,208.78,-368.146,113.644,-387.038C29.504,-403.747,-45.65,-452.523,-131.256,-447.015C-230.419,-440.635,-340.151,-426.136,-407.939,-353.481C-476.139,-280.384,-489.971,-169.274,-483.472,-69.513C-477.631,20.141,-409.729,88.361,-373.79,170.704C-337.043,254.898,-334.965,355.1,-269.86,419.91C-198.362,491.085,-100.389,532.815,0,542.803" fill="#13552f"></path><path d="M1440 992.396C1522.802 994.1800000000001 1610.627 977.191 1673.368 923.127 1733.519 871.2950000000001 1736.6109999999999 782.726 1767.973 709.78 1798.463 638.864 1864.88 576.888 1855.153 500.31 1845.409 423.6 1762.135 382.55 1718.315 318.839 1667.25 244.59500000000003 1656.017 137.52800000000002 1576.491 95.15499999999997 1494.798 51.627999999999986 1388.059 58.622000000000014 1304.438 98.31900000000002 1224.424 136.30399999999997 1204.102 238.66000000000003 1141.731 301.549 1072.848 371.003 955.749 394.031 920.617 485.324 884.285 579.734 900.395 696.843 957.469 780.365 1012.752 861.2660000000001 1123.301 873.787 1213.008 913.206 1287.8899999999999 946.111 1358.226 990.634 1440 992.396" fill="#1d7f47"></path></g><defs><mask id="SvgjsMask1001"><rect width="1440" height="560" fill="#ffffff"></rect></mask></defs></svg>